<svg xmlns="http://www.w3.org/2000/svg" viewBox="0 0 1200 220">
  <!-- Left testimonial section -->
  <circle cx="203" cy="50" r="40" fill="#f5f5f5" />
  <text x="203" y="55" font-family="Arial" font-size="10" text-anchor="middle" fill="#e0e0e0">90 × 90</text>
  
  <!-- Center testimonial section -->
  <circle cx="600" cy="50" r="40" fill="#f5f5f5" />
  <text x="600" y="55" font-family="Arial" font-size="10" text-anchor="middle" fill="#e0e0e0">90 × 90</text>
  
  <!-- Right testimonial section -->
  <circle cx="997" cy="50" r="40" fill="#f5f5f5" />
  <text x="997" y="55" font-family="Arial" font-size="10" text-anchor="middle" fill="#e0e0e0">90 × 90</text>
  
  <!-- Left testimonial text placeholder -->
  <rect x="63" y="120" width="280" height="6" rx="3" fill="#e0e0e0" />
  <rect x="63" y="133" width="280" height="6" rx="3" fill="#e0e0e0" />
  <rect x="63" y="146" width="280" height="6" rx="3" fill="#e0e0e0" />
  <rect x="63" y="159" width="280" height="6" rx="3" fill="#e0e0e0" />
  <rect x="93" y="172" width="220" height="6" rx="3" fill="#e0e0e0" />
  
  <!-- Center testimonial text placeholder -->
  <rect x="460" y="120" width="280" height="6" rx="3" fill="#e0e0e0" />
  <rect x="460" y="133" width="280" height="6" rx="3" fill="#e0e0e0" />
  <rect x="460" y="146" width="280" height="6" rx="3" fill="#e0e0e0" />
  <rect x="460" y="159" width="280" height="6" rx="3" fill="#e0e0e0" />
  <rect x="490" y="172" width="220" height="6" rx="3" fill="#e0e0e0" />
  
  <!-- Right testimonial text placeholder -->
  <rect x="857" y="120" width="280" height="6" rx="3" fill="#e0e0e0" />
  <rect x="857" y="133" width="280" height="6" rx="3" fill="#e0e0e0" />
  <rect x="857" y="146" width="280" height="6" rx="3" fill="#e0e0e0" />
  <rect x="857" y="159" width="280" height="6" rx="3" fill="#e0e0e0" />
  <rect x="887" y="172" width="220" height="6" rx="3" fill="#e0e0e0" />
  
  <!-- Left divider line -->
  <rect x="203" y="202" width="40" height="4" rx="2" fill="#e0e0e0" />
  
  <!-- Center divider line -->
  <rect x="600" y="202" width="40" height="4" rx="2" fill="#e0e0e0" />
  
  <!-- Right divider line -->
  <rect x="997" y="202" width="40" height="4" rx="2" fill="#e0e0e0" />
  
  <!-- Left name placeholder -->
  <rect x="173" y="230" width="60" height="10" rx="3" fill="#c0c0c0" />
  
  <!-- Left title placeholder -->
  <rect x="153" y="247" width="100" height="6" rx="3" fill="#e0e0e0" />
  
  <!-- Center name placeholder -->
  <rect x="570" y="230" width="60" height="10" rx="3" fill="#c0c0c0" />
  
  <!-- Center title placeholder -->
  <rect x="550" y="247" width="100" height="6" rx="3" fill="#e0e0e0" />
  
  <!-- Right name placeholder -->
  <rect x="967" y="230" width="60" height="10" rx="3" fill="#c0c0c0" />
  
  <!-- Right title placeholder -->
  <rect x="947" y="247" width="100" height="6" rx="3" fill="#e0e0e0" />
</svg>